<svg width="27" height="20" viewBox="0 0 27 20" fill="none" xmlns="http://www.w3.org/2000/svg">
<path d="M1.0412 5.21152C0.935013 4.27795 1.03468 3.33244 1.3332 2.44153C1.57849 1.9708 1.96248 1.58681 2.4332 1.34153C3.32603 1.03914 4.27441 0.93672 5.2112 1.04152H21.3312C22.2661 0.934776 23.213 1.03445 24.1052 1.33352C24.576 1.57876 24.96 1.96277 25.2052 2.43353C25.5043 3.32569 25.604 4.27263 25.4972 5.20753V14.1415C25.604 15.0764 25.5043 16.0234 25.2052 16.9155C24.96 17.3863 24.576 17.7703 24.1052 18.0155C23.213 18.3146 22.2661 18.4143 21.3312 18.3075H5.2112C4.27763 18.4137 3.33211 18.3141 2.4412 18.0155C1.97044 17.7703 1.58644 17.3863 1.3412 16.9155C1.03943 16.0239 0.937025 15.077 1.0412 14.1415V5.21152Z" stroke="#E75B0D" stroke-width="1.8"/>
<path d="M1.04102 6.79663H25.501" stroke="#E75B0D" stroke-width="1.8" stroke-linecap="round"/>
<path d="M5.35718 14.7095C5.75428 14.7095 6.07618 14.3876 6.07618 13.9905C6.07618 13.5934 5.75428 13.2715 5.35718 13.2715C4.96009 13.2715 4.63818 13.5934 4.63818 13.9905C4.63818 14.3876 4.96009 14.7095 5.35718 14.7095Z" fill="#F0A881"/>
</svg>
