<svg width="28" height="27" viewBox="0 0 28 27" fill="none" xmlns="http://www.w3.org/2000/svg">
<path d="M15.8338 12.8542L12.5098 21.073L6.29155 18.4985L9.6312 10.3553L15.8338 12.8542Z" fill="black" fill-opacity="0.2"/>
<path d="M9.27039 3.90112L8.49439 4.08012C8.56474 4.3859 8.57359 4.70262 8.52044 5.01185C8.46728 5.32108 8.35317 5.61666 8.18474 5.88139C8.01632 6.14612 7.79694 6.37473 7.53937 6.55391C7.2818 6.73309 6.99117 6.85928 6.68439 6.92512C6.06232 7.05608 5.4137 6.93774 4.87796 6.59554C4.34222 6.25334 3.96213 5.7146 3.81939 5.09512L2.26739 5.41312C2.05465 5.45957 1.85354 5.54866 1.6762 5.67501C1.49885 5.80136 1.34897 5.96235 1.23559 6.14825C1.12222 6.33416 1.04771 6.54112 1.01656 6.75663C0.985419 6.97214 0.998287 7.19173 1.05439 7.40212C1.05439 7.40212 1.77039 10.7241 2.60639 14.4641" stroke="white" stroke-width="1.7" stroke-linecap="round" stroke-linejoin="round"/>
<path d="M24.1915 3.88122C24.0729 4.21654 23.8874 4.52427 23.6463 4.78575C23.4052 5.04723 23.1135 5.25701 22.7889 5.40236C22.4643 5.5477 22.1135 5.62559 21.7579 5.6313C21.4022 5.637 21.0492 5.57041 20.72 5.43555C20.3909 5.30069 20.0926 5.10038 19.8433 4.84677C19.5939 4.59316 19.3987 4.29153 19.2694 3.96019C19.1401 3.62885 19.0795 3.27469 19.0912 2.91921C19.1029 2.56373 19.1867 2.21434 19.3375 1.89222L17.7255 1.13622C17.2951 0.956923 16.8115 0.954537 16.3794 1.12958C15.9473 1.30462 15.6017 1.64297 15.4175 2.07122L8.73347 17.8032L7.85847 19.7922C7.67824 20.2229 7.67537 20.7073 7.85047 21.1401C8.02557 21.5729 8.36448 21.919 8.79347 22.1032L16.8705 25.5452C17.3008 25.7245 17.7845 25.7269 18.2165 25.5519C18.6486 25.3768 18.9943 25.0385 19.1785 24.6102L26.7385 6.82522C26.9051 6.41168 26.9096 5.95053 26.7511 5.53382C26.5926 5.11711 26.2828 4.77551 25.8835 4.57722L24.1915 3.88122Z" stroke="white" stroke-width="1.7" stroke-linecap="round" stroke-linejoin="round"/>
</svg>
