<svg width="22" height="26" viewBox="0 0 22 26" fill="none" xmlns="http://www.w3.org/2000/svg">
<path d="M12.502 22.5321V14.0831C12.5117 13.6447 12.3469 13.2205 12.0438 12.9035C11.7408 12.5866 11.3244 12.403 10.886 12.3931H6.03901C5.60066 12.403 5.1842 12.5866 4.88117 12.9035C4.57815 13.2205 4.41335 13.6447 4.42301 14.0831V22.5321" fill="black" fill-opacity="0.2"/>
<path d="M1 12.63C1 10.682 1 9.70895 1.394 8.85195C1.788 7.99495 2.527 7.36195 4.006 6.09495L5.44 4.86595C8.113 2.57495 9.449 1.42896 11.04 1.42896C12.631 1.42896 13.968 2.57495 16.64 4.86595L18.074 6.09595C19.553 7.36395 20.292 7.99595 20.686 8.85295C21.08 9.70995 21.08 10.683 21.08 12.631V18.714C21.08 21.414 21.08 22.771 20.24 23.614C19.4 24.457 18.047 24.454 15.34 24.454H6.738C4.038 24.454 2.681 24.454 1.838 23.614C0.995001 22.774 1 21.418 1 18.713V12.63Z" stroke="white" stroke-width="1.6"/>
<path d="M14.6271 24.451V17.278C14.6271 16.8977 14.476 16.5329 14.2071 16.264C13.9381 15.9951 13.5734 15.844 13.1931 15.844H8.89308C8.70443 15.8435 8.51752 15.8802 8.34308 15.952C8.16864 16.0238 8.01008 16.1294 7.8765 16.2626C7.74292 16.3958 7.63693 16.5541 7.56462 16.7283C7.4923 16.9025 7.45508 17.0893 7.45508 17.278V24.45" stroke="white" stroke-width="1.6" stroke-linecap="round" stroke-linejoin="round"/>
</svg>
