<svg width="25" height="24" viewBox="0 0 25 24" fill="none" xmlns="http://www.w3.org/2000/svg">
<path d="M7 0H1C0.447715 0 0 0.447715 0 1V7C0 7.55228 0.447715 8 1 8H7C7.55228 8 8 7.55228 8 7V1C8 0.447715 7.55228 0 7 0Z" fill="black" fill-opacity="0.2"/>
<path d="M10 3H4C3.44772 3 3 3.44772 3 4V10C3 10.5523 3.44772 11 4 11H10C10.5523 11 11 10.5523 11 10V4C11 3.44772 10.5523 3 10 3Z" stroke="white" stroke-width="1.6" stroke-linecap="round"/>
<path d="M10 15H4C3.44772 15 3 15.4477 3 16V22C3 22.5523 3.44772 23 4 23H10C10.5523 23 11 22.5523 11 22V16C11 15.4477 10.5523 15 10 15Z" stroke="white" stroke-width="1.6" stroke-linecap="round"/>
<path d="M23 3H17C16.4477 3 16 3.44772 16 4V10C16 10.5523 16.4477 11 17 11H23C23.5523 11 24 10.5523 24 10V4C24 3.44772 23.5523 3 23 3Z" stroke="white" stroke-width="1.6" stroke-linecap="round"/>
<path d="M19.04 15.0811V23.0001" stroke="white" stroke-width="1.6" stroke-linecap="round"/>
<path d="M23.0001 19.04H15.0811" stroke="white" stroke-width="1.6" stroke-linecap="round"/>
</svg>
