<svg width="38" height="38" viewBox="0 0 38 38" fill="none" xmlns="http://www.w3.org/2000/svg">
<path fill-rule="evenodd" clip-rule="evenodd" d="M13.9729 15.4216L5.93598 18.033C5.68376 18.1149 5.40931 18.0933 5.17301 17.9729C4.93672 17.8525 4.75793 17.6432 4.67598 17.391C4.59403 17.1388 4.61563 16.8643 4.73603 16.628C4.85643 16.3917 5.06576 16.2129 5.31798 16.131L12.926 13.659C13.1782 13.577 13.3875 13.3982 13.5079 13.1619C13.6283 12.9256 13.6499 12.6512 13.568 12.399C13.486 12.1468 13.3072 11.9374 13.0709 11.817C12.8347 11.6966 12.5602 11.675 12.308 11.757L4.69998 14.229C3.94332 14.4748 3.31532 15.0112 2.95412 15.7201C2.59293 16.429 2.52813 17.2523 2.77398 18.009L8.33598 35.127C8.58184 35.8836 9.1182 36.5116 9.82709 36.8728C10.536 37.234 11.3593 37.2988 12.116 37.053L34.94 29.637C35.6966 29.3911 36.3246 28.8547 36.6858 28.1458C37.047 27.437 37.1118 26.6136 36.866 25.857L35.9418 23.0125C35.8598 22.7603 35.681 22.551 35.4447 22.4306C35.2084 22.3102 34.934 22.2886 34.6818 22.3705C34.4295 22.4525 34.2202 22.6313 34.0998 22.8676C33.9794 23.1039 33.9578 23.3783 34.0398 23.6305L34.964 26.475C35.0459 26.7272 35.0243 27.0016 34.9039 27.2379C34.7835 27.4742 34.5742 27.653 34.322 27.735L11.498 35.151C11.2458 35.2329 10.9713 35.2113 10.735 35.0909C10.4987 34.9705 10.3199 34.7612 10.238 34.509L5.55015 20.0814C5.89066 20.0902 6.23018 20.0407 6.55398 19.935L29.378 12.519C29.6302 12.437 29.9047 12.4586 30.1409 12.579C30.3772 12.6994 30.556 12.9088 30.638 13.161L31.2619 15.0811C31.3438 15.3333 31.5226 15.5426 31.7589 15.663C31.9952 15.7834 32.2696 15.805 32.5219 15.7231C32.7741 15.6411 32.9834 15.4623 33.1038 15.226C33.2242 14.9897 33.2458 14.7153 33.1639 14.4631L32.54 12.543C32.4066 12.1309 32.1853 11.7527 31.8915 11.4344C31.5977 11.1162 31.2383 10.8656 30.8382 10.6998L31.06 9.76451C31.2871 8.78531 31.1226 7.75609 30.6015 6.8965C30.0804 6.03691 29.244 5.41502 28.2708 5.16354L20.8892 3.2586C20.4234 3.13846 19.9385 3.11126 19.4622 3.17854C18.9858 3.24582 18.5274 3.40626 18.1131 3.65072C17.6988 3.89517 17.3367 4.21885 17.0475 4.60325C16.7583 4.98766 16.5477 5.42527 16.4276 5.89109L13.9729 15.4216ZM12.782 32.631L14.684 32.013C14.9362 31.931 15.1455 31.7522 15.2659 31.5159C15.3863 31.2796 15.4079 31.0052 15.326 30.753C15.244 30.5008 15.0652 30.2914 14.8289 30.171C14.5927 30.0506 14.3182 30.029 14.066 30.111L12.164 30.729C11.9118 30.8109 11.7024 30.9897 11.582 31.226C11.4616 31.4623 11.44 31.7368 11.522 31.989C11.6039 32.2412 11.7827 32.4505 12.019 32.5709C12.2553 32.6913 12.5298 32.7129 12.782 32.631ZM11.855 29.778L15.659 28.542C15.9112 28.46 16.1205 28.2812 16.2409 28.0449C16.3613 27.8086 16.3829 27.5342 16.301 27.282C16.219 27.0298 16.0402 26.8204 15.8039 26.7C15.5677 26.5796 15.2932 26.558 15.041 26.64L11.237 27.876C10.9848 27.9579 10.7754 28.1367 10.655 28.373C10.5346 28.6093 10.513 28.8838 10.595 29.136C10.6769 29.3882 10.8557 29.5975 11.092 29.7179C11.3283 29.8383 11.6028 29.8599 11.855 29.778ZM34.703 19.2L34.3866 18.2262C34.3046 17.9739 34.1258 17.7646 33.8895 17.6442C33.6532 17.5238 33.3788 17.5022 33.1266 17.5842C32.8743 17.6661 32.665 17.8449 32.5446 18.0812C32.4242 18.3175 32.4026 18.5919 32.4846 18.8442L32.801 19.818C32.8829 20.0702 33.0617 20.2795 33.298 20.3999C33.5343 20.5203 33.8088 20.5419 34.061 20.46C34.3132 20.378 34.5225 20.1992 34.6429 19.9629C34.7633 19.7266 34.7849 19.4522 34.703 19.2ZM21.0255 13.1301L28.8085 10.6012L29.1079 9.31269C29.2169 8.84196 29.1377 8.34728 28.8871 7.93413C28.6366 7.52097 28.2346 7.22202 27.7669 7.10099L23.0537 5.88509L21.0255 13.1301ZM18.7431 13.8717L21.1194 5.38437L20.3881 5.19512C20.1768 5.14058 19.9568 5.12821 19.7407 5.15875C19.5246 5.18929 19.3166 5.26212 19.1287 5.37308C18.9407 5.48404 18.7765 5.63097 18.6454 5.80545C18.5142 5.97992 18.4188 6.17853 18.3645 6.38992L16.2258 14.6896L18.7431 13.8717Z" fill="white"/>
</svg>
