<svg width="56" height="52" viewBox="0 0 56 52" fill="none" xmlns="http://www.w3.org/2000/svg">
<path d="M28.5 29.5149C32.6421 29.5149 36 26.157 36 22.0149C36 17.8728 32.6421 14.5149 28.5 14.5149C24.3579 14.5149 21 17.8728 21 22.0149C21 26.157 24.3579 29.5149 28.5 29.5149Z" fill="#F0A881"/>
<path d="M17.7715 15.1949C17.6389 15.1569 17.5001 15.1454 17.363 15.161C17.2259 15.1767 17.0933 15.2192 16.9726 15.2862C16.852 15.3531 16.7457 15.4432 16.6599 15.5512C16.5741 15.6592 16.5104 15.7831 16.4725 15.9158L15.8438 18.1084C15.767 18.3761 15.7997 18.6633 15.9348 18.9069C16.0698 19.1505 16.296 19.3304 16.5637 19.4072C16.8314 19.4839 17.1186 19.4512 17.3622 19.3162C17.6057 19.1812 17.7857 18.955 17.8624 18.6873L18.4912 16.4946C18.5293 16.3621 18.541 16.2232 18.5254 16.0861C18.5099 15.949 18.4675 15.8164 18.4007 15.6956C18.3339 15.5749 18.2439 15.4686 18.1359 15.3827C18.028 15.2968 17.9042 15.233 17.7715 15.1949Z" fill="#E95A0C"/>
<path d="M16.1993 20.6778C15.9316 20.6011 15.6444 20.6338 15.4008 20.7688C15.1572 20.9038 14.9773 21.1301 14.9005 21.3978L14.2718 23.5904C14.195 23.8581 14.2278 24.1453 14.3628 24.3889C14.4978 24.6324 14.724 24.8124 14.9917 24.8891C15.2594 24.9659 15.5466 24.9332 15.7902 24.7982C16.0337 24.6632 16.2137 24.4369 16.2904 24.1692L16.9192 21.9766C16.9959 21.7089 16.9632 21.4217 16.8282 21.1781C16.6932 20.9346 16.467 20.7546 16.1993 20.6778Z" fill="#E95A0C"/>
<path d="M14.627 26.161C14.4941 26.1229 14.3551 26.1114 14.2177 26.1272C14.0804 26.143 13.9476 26.1857 13.8268 26.2529C13.706 26.3202 13.5997 26.4106 13.514 26.519C13.4282 26.6275 13.3648 26.7517 13.3272 26.8848L12.6984 29.0774C12.6217 29.3451 12.6544 29.6323 12.7894 29.8759C12.9244 30.1194 13.1506 30.2994 13.4183 30.3761C13.686 30.4529 13.9732 30.4202 14.2168 30.2852C14.4604 30.1502 14.6403 29.9239 14.7171 29.6562L15.3458 27.4636C15.3844 27.3309 15.3964 27.1918 15.3812 27.0544C15.3659 26.9171 15.3237 26.784 15.2569 26.663C15.1901 26.542 15.1001 26.4354 14.992 26.3492C14.8839 26.2631 14.7599 26.1991 14.627 26.161Z" fill="#E95A0C"/>
<path d="M17.9299 2.70579C17.3228 2.58452 16.6934 2.64372 16.1195 2.87607C15.5455 3.10842 15.0522 3.50376 14.7004 4.01327L12.1907 7.68679C11.3709 7.52467 10.5201 7.67498 9.80551 8.10819C9.09091 8.5414 8.56415 9.22618 8.32873 10.028L7.17712 14.0441C7.11573 14.2578 7.12372 14.4854 7.19995 14.6942C7.27617 14.903 7.41669 15.0822 7.60128 15.2061C8.24143 15.7608 8.69888 16.4962 8.91357 17.3156C9.12827 18.135 9.09018 19.0002 8.80431 19.7975C8.62481 20.6261 8.19878 21.3809 7.58222 21.9628C6.96565 22.5447 6.18743 22.9264 5.34988 23.0577C5.12771 23.0649 4.91356 23.1424 4.73827 23.2791C4.56298 23.4158 4.43559 23.6045 4.37444 23.8183L2.64454 29.8511C2.4047 30.7028 2.5108 31.6147 2.93976 32.3886C3.36872 33.1625 4.08585 33.7357 4.93521 33.9836L20.871 38.5531L36.3315 49.3187C37.0223 49.7909 37.8724 49.9695 38.6948 49.8152C39.5172 49.6609 40.2447 49.1862 40.7173 48.4957L43.1612 44.9177C43.9852 45.0904 44.844 44.9464 45.5665 44.5142C46.289 44.0821 46.8223 43.3936 47.0599 42.586L48.7906 36.5502C48.852 36.3366 48.844 36.109 48.7678 35.9002C48.6916 35.6914 48.5511 35.5121 48.3665 35.3883C47.726 34.8334 47.2685 34.0976 47.0538 33.2778C46.8392 32.458 46.8776 31.5925 47.164 30.7949C47.3435 29.9664 47.7695 29.2115 48.3861 28.6296C49.0027 28.0477 49.7809 27.6661 50.6184 27.5348C50.8406 27.5276 51.0547 27.4501 51.23 27.3134C51.4053 27.1767 51.5327 26.9879 51.5939 26.7742L52.7438 22.7638C52.9837 21.9121 52.8776 21.0002 52.4486 20.2263C52.0196 19.4525 51.3025 18.8793 50.4532 18.6313L34.5212 14.0629L19.0911 3.1948C18.7287 2.97851 18.3379 2.81391 17.9299 2.70579ZM17.5035 4.75151C17.6428 4.78202 17.7747 4.83929 17.8921 4.92015L28.3657 12.2927L14.3361 8.26973L16.4356 5.19637C16.5474 5.0235 16.7088 4.88843 16.8987 4.80885C17.0886 4.72928 17.298 4.70891 17.4997 4.75041L17.5035 4.75151ZM11.8824 9.75597L17.7557 11.4401L17.48 12.4014C17.4033 12.6691 17.436 12.9563 17.571 13.1998C17.706 13.4434 17.9323 13.6234 18.2 13.7001C18.4676 13.7769 18.7549 13.7442 18.9984 13.6091C19.242 13.4741 19.4219 13.2479 19.4987 12.9802L19.7743 12.019L49.8743 20.65C50.0322 20.6924 50.1799 20.7663 50.3087 20.8671C50.4374 20.968 50.5444 21.0938 50.6234 21.2369C50.7024 21.3801 50.7517 21.5377 50.7683 21.7004C50.785 21.863 50.7687 22.0274 50.7204 22.1836L49.735 25.6201C48.6248 25.8987 47.611 26.4734 46.8018 27.2829C45.9926 28.0924 45.4182 29.1064 45.14 30.2166C44.7879 31.3054 44.7379 32.4693 44.9953 33.5843C45.2527 34.6992 45.8078 35.7234 46.6015 36.5477L45.0367 42.0048C44.9948 42.1633 44.9213 42.3117 44.8206 42.441C44.7199 42.5704 44.594 42.6781 44.4507 42.7575C44.3073 42.837 44.1493 42.8867 43.9862 42.9035C43.8232 42.9204 43.6584 42.9041 43.5017 42.8557L13.4046 34.2255C13.5092 33.8789 13.6072 33.5189 13.7078 33.1681C13.7846 32.9004 13.7519 32.6132 13.6169 32.3696C13.4819 32.1261 13.2556 31.9461 12.9879 31.8693C12.7202 31.7926 12.433 31.8253 12.1895 31.9603C11.9459 32.0953 11.7659 32.3216 11.6892 32.5892C11.5889 32.9391 11.4849 33.3015 11.386 33.6466L5.5146 31.963C5.35603 31.9213 5.20756 31.8478 5.07813 31.7471C4.9487 31.6464 4.84099 31.5206 4.76149 31.3772C4.68199 31.2338 4.63235 31.0757 4.61555 30.9126C4.59875 30.7495 4.61514 30.5847 4.66374 30.428L6.22798 24.9729C7.33816 24.6943 8.35191 24.1196 9.16114 23.3101C9.97036 22.5006 10.5447 21.4866 10.823 20.3764C11.175 19.2876 11.225 18.1237 10.9676 17.0087C10.7102 15.8938 10.1551 14.8695 9.36143 14.0453L10.3474 10.6068C10.3893 10.4483 10.4628 10.3 10.5635 10.1706C10.6642 10.0412 10.7901 9.93359 10.9335 9.85411C11.0768 9.77463 11.2348 9.72497 11.3979 9.7081C11.561 9.69124 11.7258 9.70752 11.8824 9.75597ZM27.1203 40.3409L41.0202 44.3266L38.9849 47.3102C38.9104 47.4266 38.813 47.5267 38.6987 47.6043C38.5844 47.682 38.4555 47.7356 38.3198 47.762C38.1842 47.7883 38.0446 47.7869 37.9095 47.7577C37.7744 47.7285 37.6467 47.6722 37.534 47.5922L27.1203 40.3409Z" fill="#E95A0C"/>
</svg>
