<svg width="58" height="41" viewBox="0 0 58 41" fill="none" xmlns="http://www.w3.org/2000/svg">
<path d="M20.1927 14.5037C25.9492 14.5037 27.9692 16.8397 27.9692 17.5912V29.8434C25.4645 28.9732 22.8441 28.481 20.1943 28.3832C17.7271 28.4423 15.2897 28.9366 12.9945 29.8434V17.5912C12.9945 17.5912 14.4363 14.5037 20.1927 14.5037Z" fill="#F4E2D8"/>
<path d="M55.9539 5.29285H52.5534V2.73443C52.5535 2.50118 52.4851 2.27304 52.3567 2.07834C52.2283 1.88364 52.0454 1.73096 51.831 1.63929C44.6496 -1.42836 35.8132 -0.127683 28.5721 5.01369C21.3309 -0.121548 12.4961 -1.42836 5.3147 1.63929C5.10022 1.73096 4.91741 1.88364 4.78897 2.07834C4.66053 2.27304 4.59213 2.50118 4.59227 2.73443V5.29285H1.19025C0.874574 5.29285 0.57183 5.41825 0.348615 5.64147C0.125401 5.86468 0 6.16742 0 6.4831L0 39.3898C0 39.7054 0.125401 40.0082 0.348615 40.2314C0.57183 40.4546 0.874574 40.58 1.19025 40.58H55.9477C56.2634 40.58 56.5662 40.4546 56.7894 40.2314C57.0126 40.0082 57.138 39.7054 57.138 39.3898V6.4831C57.138 6.16848 57.0134 5.86667 56.7915 5.64363C56.5697 5.42059 56.2685 5.29447 55.9539 5.29285ZM2.38049 38.1918V7.66875H4.59073V35.6396C4.59062 35.8365 4.63937 36.0304 4.73261 36.2038C4.82585 36.3773 4.96068 36.5249 5.125 36.6334C5.28932 36.7419 5.478 36.808 5.67413 36.8257C5.87026 36.8434 6.06772 36.8121 6.2488 36.7347C9.21127 35.587 12.3944 35.1219 15.5614 35.3742C18.7284 35.6265 21.7978 36.5896 24.5412 38.1918H2.38049ZM27.3818 37.1059C23.2594 34.419 18.4579 32.9598 13.5375 32.8986C11.3089 32.8908 9.09304 33.234 6.97123 33.9155V6.49691C6.97123 6.49691 6.97123 6.4877 6.97123 6.4831C6.97123 6.4785 6.97123 6.4739 6.97123 6.4693V3.53969C13.3213 1.1592 21.0211 2.49056 27.3803 7.08436L27.3818 37.1059ZM29.7562 7.08436C36.1169 2.49056 43.8167 1.1592 50.1652 3.53969V6.4693C50.1652 6.4693 50.1652 6.4785 50.1652 6.4831C50.1652 6.4877 50.1652 6.4923 50.1652 6.49691V33.9232C46.7373 32.9263 43.1319 32.6957 39.6049 33.2478C36.0779 33.8 32.7155 35.1213 29.7562 37.1182V7.08436ZM54.7575 38.1918H32.6076C35.3499 36.5893 38.4182 35.6255 41.5844 35.3722C44.7505 35.1189 47.933 35.5825 50.8953 36.7286C51.0764 36.806 51.2739 36.8372 51.47 36.8196C51.6661 36.8019 51.8548 36.7358 52.0191 36.6273C52.1835 36.5187 52.3183 36.3711 52.4115 36.1977C52.5048 36.0242 52.5535 35.8303 52.5534 35.6334V7.66875H54.7575V38.1918Z" fill="#E95A0C"/>
</svg>
