<svg width="52" height="52" viewBox="0 0 52 52" fill="none" xmlns="http://www.w3.org/2000/svg">
<path d="M24.8245 31.4092H12.2551C11.3874 31.4092 10.6839 32.1126 10.6839 32.9804V43.9786C10.6839 44.8463 11.3874 45.5497 12.2551 45.5497H24.8245C25.6922 45.5497 26.3957 44.8463 26.3957 43.9786V32.9804C26.3957 32.1126 25.6922 31.4092 24.8245 31.4092Z" fill="#F7E6DC"/>
<path fill-rule="evenodd" clip-rule="evenodd" d="M5.03088 30.1948C5.72507 30.1948 6.28782 30.7576 6.28782 31.4518V48.4361C6.28782 48.6028 6.35403 48.7627 6.47189 48.8805C6.53025 48.9389 6.59953 48.9852 6.67578 49.0168C6.75203 49.0483 6.83375 49.0646 6.91628 49.0646H44.6605C44.8272 49.0646 44.9871 48.9984 45.1049 48.8805C45.2228 48.7627 45.289 48.6028 45.289 48.4361V31.4518C45.289 30.7576 45.8518 30.1948 46.5459 30.1948C47.2401 30.1948 47.8029 30.7576 47.8029 31.4518V48.4361C47.8029 49.2695 47.4718 50.0688 46.8825 50.6581C46.2932 51.2474 45.4939 51.5785 44.6605 51.5785H6.91628C6.50362 51.5785 6.09501 51.4972 5.71376 51.3393C5.33251 51.1814 4.9861 50.9499 4.69431 50.6581C4.10501 50.0688 3.77394 49.2695 3.77394 48.4361V31.4518C3.77394 30.7576 4.33669 30.1948 5.03088 30.1948Z" fill="#E95A0C"/>
<path fill-rule="evenodd" clip-rule="evenodd" d="M29.5648 30.1948C30.259 30.1948 30.8218 30.7576 30.8218 31.4518V50.3231C30.8218 51.0173 30.259 51.58 29.5648 51.58C28.8706 51.58 28.3079 51.0173 28.3079 50.3231V31.4518C28.3079 30.7576 28.8706 30.1948 29.5648 30.1948Z" fill="#E95A0C"/>
<path fill-rule="evenodd" clip-rule="evenodd" d="M3.77394 37.1127C3.77394 36.4185 4.33669 35.8557 5.03088 35.8557H29.5647C30.2589 35.8557 30.8217 36.4185 30.8217 37.1127C30.8217 37.8068 30.2589 38.3696 29.5647 38.3696H5.03088C4.33669 38.3696 3.77394 37.8068 3.77394 37.1127Z" fill="#E95A0C"/>
<path fill-rule="evenodd" clip-rule="evenodd" d="M5.75768 0.762204C5.95565 0.299835 6.41019 0 6.91316 0H44.6621C45.1651 0 45.6196 0.299835 45.8176 0.762204L51.4738 13.9726C51.6401 14.361 51.6002 14.8068 51.3676 15.1595C51.135 15.5121 50.7408 15.7243 50.3183 15.7243H1.25694C0.834508 15.7243 0.440325 15.5121 0.207718 15.1595C-0.0248888 14.8068 -0.0648076 14.361 0.101464 13.9726L5.75768 0.762204ZM7.74229 2.51388L3.16242 13.2104H48.4129L43.833 2.51388H7.74229Z" fill="#E95A0C"/>
<path fill-rule="evenodd" clip-rule="evenodd" d="M1.25694 13.2102C1.95112 13.2102 2.51387 13.773 2.51387 14.4671V18.238C2.51387 19.9048 3.17601 21.5033 4.35462 22.6819C5.53322 23.8605 7.13176 24.5226 8.79856 24.5226H9.8701C10.6954 24.5226 11.5127 24.3601 12.2751 24.0442C13.0376 23.7284 13.7305 23.2655 14.314 22.6819C14.8976 22.0983 15.3606 21.4055 15.6764 20.643C15.9922 19.8805 16.1548 19.0633 16.1548 18.238V14.4671C16.1548 13.773 16.7175 13.2102 17.4117 13.2102C18.1059 13.2102 18.6687 13.773 18.6687 14.4671V18.238C18.6687 19.3934 18.4411 20.5375 17.9989 21.605C17.5567 22.6725 16.9086 23.6425 16.0916 24.4595C15.2746 25.2765 14.3047 25.9246 13.2372 26.3668C12.1697 26.8089 11.0255 27.0365 9.8701 27.0365H8.79856C6.46504 27.0365 4.22709 26.1095 2.57704 24.4595C0.926989 22.8094 0 20.5715 0 18.238V14.4671C0 13.773 0.56275 13.2102 1.25694 13.2102Z" fill="#E95A0C"/>
<path fill-rule="evenodd" clip-rule="evenodd" d="M17.3144 13.2102C18.0085 13.2102 18.5713 13.773 18.5713 14.4671V18.238C18.5713 19.9048 19.2334 21.5033 20.412 22.6819C21.5906 23.8605 23.1892 24.5226 24.856 24.5226H26.7414C28.4082 24.5226 30.0067 23.8605 31.1853 22.6819C32.3639 21.5033 33.0261 19.9048 33.0261 18.238V14.4671C33.0261 13.773 33.5888 13.2102 34.283 13.2102C34.9772 13.2102 35.5399 13.773 35.5399 14.4671V18.238C35.5399 20.5715 34.613 22.8094 32.9629 24.4595C31.3129 26.1095 29.0749 27.0365 26.7414 27.0365H24.856C22.5225 27.0365 20.2845 26.1095 18.6345 24.4595C16.9844 22.8094 16.0574 20.5715 16.0574 18.238V14.4671C16.0574 13.773 16.6202 13.2102 17.3144 13.2102Z" fill="#E95A0C"/>
<path fill-rule="evenodd" clip-rule="evenodd" d="M34.2987 13.2102C34.9929 13.2102 35.5557 13.773 35.5557 14.4671V18.238C35.5557 19.9048 36.2178 21.5033 37.3964 22.6819C38.575 23.8605 40.1735 24.5226 41.8403 24.5226H42.783C43.6084 24.5226 44.4256 24.3601 45.1881 24.0442C45.9506 23.7284 46.6434 23.2655 47.227 22.6819C47.8106 22.0983 48.2735 21.4055 48.5893 20.643C48.9052 19.8805 49.0677 19.0633 49.0677 18.238V14.4671C49.0677 13.773 49.6305 13.2102 50.3247 13.2102C51.0189 13.2102 51.5816 13.773 51.5816 14.4671V18.238C51.5816 19.3934 51.354 20.5375 50.9119 21.605C50.4697 22.6725 49.8216 23.6425 49.0046 24.4595C48.1875 25.2765 47.2176 25.9246 46.1501 26.3668C45.0826 26.8089 43.9385 27.0365 42.783 27.0365H41.8403C39.5068 27.0365 37.2689 26.1095 35.6188 24.4595C33.9688 22.8094 33.0418 20.5715 33.0418 18.238V14.4671C33.0418 13.773 33.6045 13.2102 34.2987 13.2102Z" fill="#E95A0C"/>
</svg>
