<svg width="56" height="53" viewBox="0 0 56 53" fill="none" xmlns="http://www.w3.org/2000/svg">
<path d="M20.6092 34.9037C25.087 34.9037 28.717 31.3152 28.717 26.8886C28.717 22.462 25.087 18.8735 20.6092 18.8735C16.1314 18.8735 12.5014 22.462 12.5014 26.8886C12.5014 31.3152 16.1314 34.9037 20.6092 34.9037Z" fill="#F7E6DC"/>
<path fill-rule="evenodd" clip-rule="evenodd" d="M2.6633 37.7393L24.6598 50.2941L42.8116 19.2133L41.9765 9.42047L29.8115 2.47781L20.8167 6.65847L2.6633 37.7393ZM24.9176 51.9308C24.7941 51.9308 24.6728 51.8987 24.5658 51.8378L1.35146 38.5953C1.19015 38.5031 1.07242 38.3514 1.02409 38.1735C0.975756 37.9956 1.00076 37.806 1.09363 37.6463L19.7076 5.77521C19.7794 5.65225 19.8874 5.55384 20.0173 5.49308L29.5391 1.06556C29.6415 1.01816 29.7539 0.995882 29.8668 1.00063C29.9797 1.00537 30.0898 1.03699 30.1877 1.09281L42.9981 8.39774C43.0963 8.45377 43.1792 8.53247 43.24 8.6271C43.3007 8.72173 43.3373 8.82949 43.3467 8.94116L44.2321 19.3127C44.2446 19.4539 44.2129 19.5954 44.1413 19.7182L25.5274 51.5909C25.4657 51.6968 25.3768 51.7848 25.2698 51.8459C25.1627 51.9069 25.0413 51.939 24.9176 51.9388V51.9308Z" fill="#E95A0C" stroke="#E95A0C" stroke-width="0.6"/>
<path fill-rule="evenodd" clip-rule="evenodd" d="M31.6779 10.1546C31.4091 10.1548 31.1414 10.1898 30.8818 10.2588C30.1996 10.4398 29.602 10.8491 29.1908 11.4168C28.7796 11.9846 28.5803 12.6757 28.6267 13.3724C28.6732 14.0692 28.9625 14.7285 29.4455 15.238C29.9285 15.7475 30.5752 16.0757 31.2755 16.1667C31.9758 16.2577 32.6864 16.1059 33.2862 15.7371C33.886 15.3683 34.3379 14.8054 34.5649 14.1442C34.7919 13.483 34.7801 12.7644 34.5313 12.1109C34.2825 11.4574 33.8123 10.9093 33.2006 10.5601C32.738 10.2949 32.2127 10.155 31.6779 10.1546ZM31.6666 17.5877C30.884 17.5862 30.1155 17.3813 29.4383 16.9935C28.7611 16.6057 28.199 16.0487 27.8084 15.3783C27.4177 14.7079 27.2123 13.9478 27.2126 13.1741C27.213 12.4005 27.4192 11.6405 27.8105 10.9705C28.4021 9.958 29.3761 9.21918 30.5185 8.91648C31.661 8.61377 32.8783 8.77196 33.9027 9.35626C34.667 9.79224 35.2833 10.4425 35.6737 11.2247C36.0641 12.007 36.211 12.8861 36.0959 13.751C35.9808 14.6158 35.6089 15.4275 35.0271 16.0833C34.4454 16.7391 33.6799 17.2097 32.8276 17.4355C32.449 17.5362 32.0587 17.5874 31.6666 17.5877Z" fill="#E95A0C" stroke="#E95A0C" stroke-width="0.6"/>
<path fill-rule="evenodd" clip-rule="evenodd" d="M13.5749 35.755C13.4203 35.7548 13.27 35.7043 13.1473 35.6113C13.0246 35.5182 12.9364 35.3878 12.8961 35.2403C12.8559 35.0927 12.866 34.9361 12.9247 34.7947C12.9835 34.6534 13.0878 34.5351 13.2214 34.4581L29.1776 25.3498C29.2577 25.3 29.3471 25.2666 29.4406 25.2518C29.534 25.2369 29.6295 25.2408 29.7214 25.2633C29.8133 25.2858 29.8996 25.3263 29.9753 25.3826C30.0509 25.4388 30.1143 25.5095 30.1617 25.5905C30.2091 25.6715 30.2394 25.7612 30.2509 25.854C30.2624 25.9469 30.2549 26.0411 30.2287 26.131C30.2025 26.2209 30.1583 26.3047 30.0986 26.3773C30.0389 26.45 29.965 26.5099 29.8813 26.5537L13.9251 35.662C13.8187 35.7229 13.6979 35.755 13.5749 35.755Z" fill="#E95A0C" stroke="#E95A0C" stroke-width="0.6"/>
<path fill-rule="evenodd" clip-rule="evenodd" d="M20.2752 21.7845C19.7793 21.7836 19.3001 21.961 18.9268 22.2835C18.5535 22.6061 18.3115 23.0519 18.2461 23.5377C18.1806 24.0236 18.2962 24.5164 18.5711 24.9243C18.846 25.3322 19.2616 25.6273 19.7404 25.7547C20.2192 25.8821 20.7285 25.833 21.1734 25.6166C21.6183 25.4002 21.9684 25.0313 22.1585 24.5785C22.3485 24.1258 22.3656 23.6202 22.2065 23.156C22.0473 22.6918 21.7228 22.3006 21.2935 22.0554C20.9838 21.8787 20.6327 21.7853 20.2752 21.7845ZM20.2654 27.2091C19.7361 27.2091 19.2139 27.0887 18.7392 26.8571C18.2645 26.6256 17.8501 26.2892 17.5281 25.8739C17.2061 25.4586 16.985 24.9756 16.8821 24.4623C16.7792 23.949 16.7972 23.4192 16.9347 22.9139C17.0722 22.4086 17.3255 21.9413 17.675 21.5483C18.0245 21.1553 18.4608 20.8471 18.9501 20.6476C19.4394 20.448 19.9686 20.3625 20.4967 20.3976C21.0249 20.4327 21.5378 20.5875 21.9957 20.85C22.652 21.2262 23.1645 21.8059 23.4538 22.4992C23.7432 23.1925 23.7932 23.9608 23.5961 24.6851C23.399 25.4094 22.9659 26.0492 22.3638 26.5055C21.7617 26.9618 21.0241 27.2091 20.2654 27.2091Z" fill="#E95A0C" stroke="#E95A0C" stroke-width="0.6"/>
<path fill-rule="evenodd" clip-rule="evenodd" d="M22.8388 35.189C22.343 35.1881 21.8637 35.3655 21.4904 35.688C21.1171 36.0106 20.8752 36.4564 20.8097 36.9422C20.7443 37.4281 20.8598 37.9209 21.1347 38.3288C21.4097 38.7367 21.8253 39.0318 22.3041 39.1592C22.7829 39.2866 23.2922 39.2375 23.7371 39.0211C24.182 38.8047 24.5321 38.4358 24.7221 37.983C24.9122 37.5303 24.9292 37.0247 24.7701 36.5605C24.6109 36.0963 24.2865 35.7051 23.8572 35.4599C23.5475 35.2831 23.1964 35.1897 22.8388 35.189ZM22.8275 40.62C22.2985 40.619 21.7768 40.4978 21.3028 40.2657C20.8287 40.0336 20.415 39.6969 20.0936 39.2815C19.7722 38.8662 19.5516 38.3833 19.449 37.8703C19.3465 37.3573 19.3646 36.8279 19.502 36.3229C19.6393 35.8179 19.8923 35.3509 20.2414 34.9579C20.5905 34.565 21.0262 34.2566 21.515 34.0567C22.0039 33.8568 22.5326 33.7707 23.0605 33.8049C23.5883 33.8392 24.1011 33.993 24.5593 34.2545C25.2164 34.631 25.7297 35.2112 26.0194 35.9053C26.3092 36.5993 26.3593 37.3685 26.162 38.0936C25.9648 38.8187 25.5311 39.4592 24.9282 39.916C24.3254 40.3727 23.587 40.6202 22.8275 40.62Z" fill="#E95A0C" stroke="#E95A0C" stroke-width="0.6"/>
<path fill-rule="evenodd" clip-rule="evenodd" d="M32.406 52.58C32.2512 52.5802 32.1007 52.5299 31.9778 52.4369C31.8549 52.3438 31.7666 52.2132 31.7266 52.0654L29.2342 42.8737C29.1937 42.6981 29.2235 42.5138 29.3176 42.3596C29.4116 42.2053 29.5626 42.0931 29.7386 42.0466C29.9146 42.0001 30.102 42.0229 30.2614 42.1102C30.4208 42.1975 30.5397 42.3425 30.5931 42.5147L32.9022 51.0331L53.3566 45.6149L45.4791 16.5523L42.5862 14.1381C42.5095 14.0814 42.4452 14.0098 42.3975 13.9276C42.3497 13.8455 42.3195 13.7546 42.3085 13.6605C42.2976 13.5664 42.3062 13.471 42.3338 13.3803C42.3614 13.2896 42.4075 13.2055 42.4692 13.133C42.5309 13.0605 42.607 13.0012 42.6926 12.9588C42.7783 12.9164 42.8719 12.8918 42.9676 12.8864C43.0632 12.881 43.159 12.895 43.249 12.9274C43.339 12.9599 43.4214 13.0103 43.491 13.0753L46.5525 15.6305C46.662 15.7222 46.7406 15.8447 46.7779 15.9816L54.8971 45.9195C54.9444 46.0977 54.9188 46.2872 54.8258 46.4469C54.7322 46.6054 54.5788 46.7207 54.3993 46.7675L32.5876 52.5559C32.5284 52.5717 32.4674 52.5798 32.406 52.58Z" fill="#E95A0C" stroke="#E95A0C" stroke-width="0.6"/>
<path fill-rule="evenodd" clip-rule="evenodd" d="M31.0715 47.6618C30.9011 47.6614 30.7365 47.5998 30.6085 47.4885C30.4805 47.3772 30.3978 47.2238 30.3756 47.0567C30.3534 46.8896 30.3933 46.7202 30.4879 46.58C30.5825 46.4399 30.7253 46.3384 30.8899 46.2945L52.6983 40.5172C52.8766 40.475 53.0645 40.5032 53.2221 40.5959C53.3797 40.6885 53.4944 40.8383 53.542 41.0134C53.5895 41.1884 53.5661 41.3749 53.4767 41.5331C53.3872 41.6913 53.2389 41.8088 53.0632 41.8605L31.2531 47.6378C31.1939 47.6535 31.1329 47.6616 31.0715 47.6618Z" fill="#E95A0C" stroke="#E95A0C" stroke-width="0.6"/>
<path fill-rule="evenodd" clip-rule="evenodd" d="M43.0111 13.9666C42.8714 13.9657 42.7352 13.9238 42.6198 13.8462C42.5043 13.7686 42.4148 13.6588 42.3626 13.5307C42.3105 13.4027 42.298 13.2622 42.3269 13.1272C42.3557 12.9921 42.4245 12.8686 42.5246 12.7723C43.4995 11.9903 44.1818 10.9085 44.463 9.69894C44.7442 8.4894 44.6081 7.22164 44.0764 6.09736C42.6089 3.58063 38.7691 3.04843 35.5178 4.90472C32.2666 6.76101 30.8153 10.3149 32.2747 12.83C32.3327 12.9087 32.3734 12.9986 32.3939 13.0939C32.4145 13.1891 32.4146 13.2876 32.3941 13.3829C32.3737 13.4782 32.3332 13.5681 32.2752 13.6469C32.2173 13.7257 32.1433 13.7916 32.0579 13.8402C31.9725 13.8888 31.8778 13.9192 31.7798 13.9292C31.6818 13.9393 31.5827 13.9288 31.4891 13.8986C31.3954 13.8683 31.3093 13.8189 31.2362 13.7536C31.1632 13.6882 31.1048 13.6084 31.065 13.5193C29.2083 10.3453 30.8899 5.93866 34.8141 3.69925C38.7383 1.45984 43.4392 2.22288 45.2942 5.40165C45.9873 6.79343 46.1871 8.37508 45.8616 9.89261C45.536 11.4101 44.704 12.7755 43.4992 13.7694C43.3691 13.8951 43.1946 13.9658 43.0127 13.9666H43.0111Z" fill="#E95A0C" stroke="#E95A0C" stroke-width="0.6"/>
</svg>
