<svg width="62" height="52" viewBox="0 0 62 52" fill="none" xmlns="http://www.w3.org/2000/svg">
<path fill-rule="evenodd" clip-rule="evenodd" d="M21.9143 26.1337C22.6836 25.914 23.4853 26.3594 23.7051 27.1287L27.1816 39.2984C27.4014 40.0676 26.9559 40.8693 26.1867 41.0891C25.4174 41.3088 24.6157 40.8634 24.3959 40.0941L20.9194 27.9245C20.6997 27.1552 21.1451 26.3535 21.9143 26.1337Z" fill="#E95A0C"/>
<path fill-rule="evenodd" clip-rule="evenodd" d="M19.6393 0.243471C20.3049 0.687266 20.4848 1.58664 20.041 2.25227L13.0861 12.6837C12.6423 13.3493 11.7429 13.5292 11.0773 13.0854C10.4116 12.6416 10.2318 11.7422 10.6756 11.0766L17.6305 0.645147C18.0743 -0.0204879 18.9736 -0.200325 19.6393 0.243471ZM42.3715 0.243471C43.0372 -0.200325 43.9365 -0.0204879 44.3803 0.645147L51.3352 11.0766C51.779 11.7422 51.5992 12.6416 50.9335 13.0854C50.2679 13.5292 49.3685 13.3493 48.9247 12.6837L41.9698 2.25227C41.526 1.58664 41.7059 0.687266 42.3715 0.243471Z" fill="#E95A0C"/>
<path fill-rule="evenodd" clip-rule="evenodd" d="M40.0947 26.1337C40.8639 26.3535 41.3094 27.1552 41.0896 27.9245L37.6131 40.0941C37.3933 40.8634 36.5916 41.3088 35.8224 41.0891C35.0531 40.8693 34.6077 40.0676 34.8274 39.2984L38.304 27.1287C38.5237 26.3594 39.3254 25.914 40.0947 26.1337Z" fill="#E95A0C"/>
<path fill-rule="evenodd" clip-rule="evenodd" d="M3.47742 18.8352C3.47744 18.0352 4.126 17.3867 4.92601 17.3867C6.24199 17.3868 7.5186 17.8356 8.54504 18.6591C9.57145 19.4826 10.2863 20.6315 10.5716 21.9161C10.5717 21.9162 10.5716 21.9161 10.5716 21.9161L14.3505 38.9239C14.9387 41.5701 15.3538 43.4272 15.8461 44.8218C16.3252 46.1792 16.8252 46.937 17.4892 47.4692C18.1539 48.0019 19.0031 48.3259 20.4321 48.4996C21.9002 48.678 23.8031 48.681 26.5131 48.681H35.4923C38.2026 48.681 40.1054 48.6785 41.5735 48.5003C43.0024 48.3268 43.8512 48.0029 44.5156 47.4697C45.1802 46.9363 45.6808 46.1775 46.1601 44.8203C46.6525 43.4259 47.0676 41.5692 47.6548 38.9243L51.4337 21.9163C51.7187 20.6328 52.4326 19.4848 53.4575 18.6614C54.4825 17.838 55.7574 17.3884 57.0721 17.3867C57.8722 17.3857 58.5215 18.0334 58.5225 18.8334C58.5236 19.6334 57.8759 20.2828 57.0758 20.2838C56.4197 20.2847 55.7835 20.509 55.2719 20.92C54.7604 21.3309 54.4042 21.9038 54.2619 22.5444L50.4658 39.6296C49.9022 42.1687 49.4508 44.2024 48.8919 45.785C48.3142 47.4209 47.5708 48.7326 46.3288 49.7293C45.0865 50.7261 43.6448 51.1672 41.9226 51.3763C40.2597 51.5781 38.181 51.5781 35.5864 51.5781H26.4361C23.8333 51.5781 21.7492 51.5781 20.0826 51.3756C18.3606 51.1663 16.9193 50.7253 15.6773 49.7298C14.4346 48.7337 13.6915 47.4219 13.1142 45.7862C12.5572 44.2084 12.1067 42.1815 11.5446 39.6522L11.5224 39.5525L7.7435 22.5445C7.60112 21.9034 7.24431 21.3298 6.73205 20.9188C6.21979 20.5078 5.58268 20.2838 4.92593 20.2838C4.12592 20.2838 3.4774 19.6353 3.47742 18.8352Z" fill="#E95A0C"/>
<path fill-rule="evenodd" clip-rule="evenodd" d="M4.926 13.3288C4.3879 13.3288 3.87185 13.5425 3.49136 13.923C3.11087 14.3035 2.89711 14.8195 2.89711 15.3576C2.89711 15.8957 3.11087 16.4118 3.49136 16.7923C3.87185 17.1728 4.3879 17.3865 4.926 17.3865H57.074C57.6121 17.3865 58.1282 17.1728 58.5086 16.7923C58.8891 16.4118 59.1029 15.8957 59.1029 15.3576C59.1029 14.8195 58.8891 14.3035 58.5086 13.923C58.1282 13.5425 57.6121 13.3288 57.074 13.3288H4.926ZM4.926 20.2836C3.61954 20.2836 2.36659 19.7646 1.44279 18.8408C0.518986 17.917 0 16.6641 0 15.3576C0 14.0512 0.518986 12.7982 1.44279 11.8744C2.36659 10.9506 3.61954 10.4316 4.926 10.4316H57.074C58.3805 10.4316 59.6334 10.9506 60.5572 11.8744C61.481 12.7982 62 14.0512 62 15.3576C62 16.6641 61.481 17.917 60.5572 18.8408C59.6355 19.7625 58.3862 20.2812 57.0831 20.2836" fill="#E95A0C"/>
</svg>
